<?xml version="1.0" encoding="UTF-8" standalone="no"?>
<svg
   xmlns:dc="http://purl.org/dc/elements/1.1/"
   xmlns:cc="http://creativecommons.org/ns#"
   xmlns:rdf="http://www.w3.org/1999/02/22-rdf-syntax-ns#"
   xmlns:svg="http://www.w3.org/2000/svg"
   xmlns="http://www.w3.org/2000/svg"
   xmlns:sodipodi="http://sodipodi.sourceforge.net/DTD/sodipodi-0.dtd"
   xmlns:inkscape="http://www.inkscape.org/namespaces/inkscape"
   width="512"
   height="512"
   viewBox="0 0 135.46665 135.46665"
   version="1.1"
   id="svg8"
   inkscape:version="1.0.1 (3bc2e813f5, 2020-09-07)"
   sodipodi:docname="pawn_black.svg">
  <defs
     id="defs2" />
  <sodipodi:namedview
     id="base"
     pagecolor="#ffffff"
     bordercolor="#666666"
     borderopacity="1.0"
     inkscape:pageopacity="0"
     inkscape:pageshadow="2"
     inkscape:zoom="1.979899"
     inkscape:cx="209.68753"
     inkscape:cy="332.60023"
     inkscape:document-units="px"
     inkscape:current-layer="layer1"
     inkscape:document-rotation="0"
     showgrid="true"
     units="px"
     inkscape:pagecheckerboard="true"
     gridtolerance="10"
     inkscape:window-width="1920"
     inkscape:window-height="1016"
     inkscape:window-x="0"
     inkscape:window-y="27"
     inkscape:window-maximized="1">
    <inkscape:grid
       type="xygrid"
       id="grid18"
       dotted="false"
       empspacing="2" />
  </sodipodi:namedview>
  <metadata
     id="metadata5">
    <rdf:RDF>
      <cc:Work
         rdf:about="">
        <dc:format>image/svg+xml</dc:format>
        <dc:type
           rdf:resource="http://purl.org/dc/dcmitype/StillImage" />
        <dc:title></dc:title>
        <cc:license
           rdf:resource="" />
      </cc:Work>
    </rdf:RDF>
  </metadata>
  <g
     inkscape:label="Layer 1"
     inkscape:groupmode="layer"
     id="layer1">
    <path
       id="path38"
       style="fill:#1e1e1e;stroke:#000000;stroke-width:9;stroke-linecap:square;stroke-linejoin:miter;stroke-miterlimit:6.5;stroke-dasharray:none;stroke-opacity:1;fill-opacity:1"
       d="m 255.92383,160 c -22.06164,0.042 -39.92387,17.93832 -39.92383,40 9e-5,15.03731 8.43371,28.8041 21.83008,35.63477 L 216,244 l 24,8 -8,140 c -32,0 -40,24.00001 -40,40 -32,0 -48,16 -48,48 h 224 c 0,-32 -15.99999,-48 -48,-48 0,-15.99999 -8,-40 -40,-40 l -8,-140 24,-8 -21.83008,-8.36523 C 287.56629,228.8041 295.99991,215.03731 296,200 c 0,-22.09139 -17.90861,-40 -40,-40 z"
       transform="scale(0.2645833)"
       sodipodi:nodetypes="cccccccccccccccsc" />
  </g>
</svg>
