<?xml version="1.0" encoding="UTF-8" standalone="no"?>
<svg
   xmlns:dc="http://purl.org/dc/elements/1.1/"
   xmlns:cc="http://creativecommons.org/ns#"
   xmlns:rdf="http://www.w3.org/1999/02/22-rdf-syntax-ns#"
   xmlns:svg="http://www.w3.org/2000/svg"
   xmlns="http://www.w3.org/2000/svg"
   xmlns:sodipodi="http://sodipodi.sourceforge.net/DTD/sodipodi-0.dtd"
   xmlns:inkscape="http://www.inkscape.org/namespaces/inkscape"
   width="512"
   height="512"
   viewBox="0 0 135.46665 135.46665"
   version="1.1"
   id="svg8"
   inkscape:version="1.0.1 (3bc2e813f5, 2020-09-07)"
   sodipodi:docname="black-knight.svg">
  <defs
     id="defs2" />
  <sodipodi:namedview
     id="base"
     pagecolor="#ffffff"
     bordercolor="#666666"
     borderopacity="1.0"
     inkscape:pageopacity="0"
     inkscape:pageshadow="2"
     inkscape:zoom="1.979899"
     inkscape:cx="133.54414"
     inkscape:cy="283.24154"
     inkscape:document-units="px"
     inkscape:current-layer="layer1"
     inkscape:document-rotation="0"
     showgrid="true"
     units="px"
     inkscape:pagecheckerboard="true"
     gridtolerance="10"
     inkscape:window-width="1920"
     inkscape:window-height="1016"
     inkscape:window-x="0"
     inkscape:window-y="27"
     inkscape:window-maximized="1">
    <inkscape:grid
       type="xygrid"
       id="grid18"
       dotted="false"
       empspacing="8" />
  </sodipodi:namedview>
  <metadata
     id="metadata5">
    <rdf:RDF>
      <cc:Work
         rdf:about="">
        <dc:format>image/svg+xml</dc:format>
        <dc:type
           rdf:resource="http://purl.org/dc/dcmitype/StillImage" />
        <dc:title />
        <cc:license
           rdf:resource="" />
      </cc:Work>
    </rdf:RDF>
  </metadata>
  <g
     inkscape:label="Layer 1"
     inkscape:groupmode="layer"
     id="layer1">
    <path
       id="path38"
       style="fill:#1e1e1e;stroke:#000000;stroke-width:11.00000003;stroke-linecap:round;stroke-linejoin:miter;stroke-miterlimit:6.30000019;stroke-dasharray:none;stroke-opacity:1;fill-opacity:1"
       d="m 357.01367,183.49805 6.54102,-26.16407 -39.10938,-19.55664 -39.11133,-19.55468 -9.77929,-19.556644 c -10,-3.000001 -20.56177,-4.312256 -30.79688,-4.431641 -26.15638,-0.305095 -50.17534,7.183155 -57.20312,14.210935 V 128 c -19.55556,19.55556 -19.55404,58.66667 9.77929,88 C 168.00065,294.22222 216,296 208,376 c -32,0 -48,24.00001 -48,40 -32,0 -56,16.00003 -56,64 h 304 c 0,-47.99997 -23.99999,-64 -56,-64 0,-15.99999 -16,-40 -48,-40 48.00001,-96.00002 -38.22222,-101.33333 -48,-160 48,0 55.99957,-23.99913 97.77734,-19.55469 l 3.16407,-12.6582 L 344,181.14286"
       transform="scale(0.2645833)"
       sodipodi:nodetypes="cccccsccccccccccccc" />
    <path
       style="fill:none;stroke:#000000;stroke-width:0.37041662;stroke-linecap:round;stroke-linejoin:round;stroke-opacity:1;stroke-miterlimit:4;stroke-dasharray:none"
       d="M 74.083324,44.449994 Z"
       id="path1594" />
    <circle
       style="fill:#000000;fill-opacity:1;stroke:#000000;stroke-width:1.45520815;stroke-linecap:round;stroke-linejoin:round;stroke-miterlimit:4;stroke-dasharray:none"
       id="path1596"
       cx="71.96666"
       cy="40.216663"
       r="1.0583332" />
  </g>
</svg>
