<?xml version="1.0" encoding="UTF-8" standalone="no"?>
<svg
   xmlns:dc="http://purl.org/dc/elements/1.1/"
   xmlns:cc="http://creativecommons.org/ns#"
   xmlns:rdf="http://www.w3.org/1999/02/22-rdf-syntax-ns#"
   xmlns:svg="http://www.w3.org/2000/svg"
   xmlns="http://www.w3.org/2000/svg"
   xmlns:sodipodi="http://sodipodi.sourceforge.net/DTD/sodipodi-0.dtd"
   xmlns:inkscape="http://www.inkscape.org/namespaces/inkscape"
   width="32"
   height="32"
   viewBox="0 0 8.4666665 8.4666669"
   version="1.1"
   id="svg8"
   inkscape:version="1.0.1 (3bc2e813f5, 2020-09-07)"
   sodipodi:docname="black-queen.svg">
  <defs
     id="defs2" />
  <sodipodi:namedview
     id="base"
     pagecolor="#ffffff"
     bordercolor="#666666"
     borderopacity="1.0"
     inkscape:pageopacity="0.0"
     inkscape:pageshadow="2"
     inkscape:zoom="31.678384"
     inkscape:cx="17.817651"
     inkscape:cy="15.597902"
     inkscape:document-units="mm"
     inkscape:current-layer="layer1"
     inkscape:document-rotation="0"
     showgrid="true"
     units="px"
     inkscape:window-width="2560"
     inkscape:window-height="1380"
     inkscape:window-x="0"
     inkscape:window-y="24"
     inkscape:window-maximized="1">
    <inkscape:grid
       type="xygrid"
       id="grid833"
       empspacing="4" />
    <inkscape:grid
       type="xygrid"
       id="grid835"
       empspacing="1"
       originy="0.13229167"
       originx="0.13229167"
       dotted="true" />
  </sodipodi:namedview>
  <metadata
     id="metadata5">
    <rdf:RDF>
      <cc:Work
         rdf:about="">
        <dc:format>image/svg+xml</dc:format>
        <dc:type
           rdf:resource="http://purl.org/dc/dcmitype/StillImage" />
        <dc:title></dc:title>
      </cc:Work>
    </rdf:RDF>
  </metadata>
  <g
     inkscape:label="Layer 1"
     inkscape:groupmode="layer"
     id="layer1">
    <rect
       style="opacity:1;fill:#000007;fill-opacity:1;stroke:none;stroke-width:0.264999;stroke-linecap:round;stroke-linejoin:round"
       id="rect873"
       width="6.3499999"
       height="0.52916664"
       x="1.0583333"
       y="6.8791666"
       ry="0" />
    <path
       id="path1058"
       style="fill:#000007;fill-opacity:1;stroke:none;stroke-width:0.999999px;stroke-linecap:butt;stroke-linejoin:miter;stroke-opacity:1"
       d="M 15.951172 4 A 1.9999999 1.9999999 0 0 0 14 6 A 1.9999999 1.9999999 0 0 0 14.800781 7.5996094 L 10 14 L 7.4140625 11.414062 A 1.9999999 1.9999999 0 0 0 8 10 A 1.9999999 1.9999999 0 0 0 6 8 A 1.9999999 1.9999999 0 0 0 4 10 A 1.9999999 1.9999999 0 0 0 6 12 A 1.9999999 1.9999999 0 0 0 6.2832031 11.978516 L 8 24 L 24 24 L 25.716797 11.978516 A 1.9999999 1.9999999 0 0 0 26 12 A 1.9999999 1.9999999 0 0 0 28 10 A 1.9999999 1.9999999 0 0 0 26 8 A 1.9999999 1.9999999 0 0 0 24 10 A 1.9999999 1.9999999 0 0 0 24.585938 11.414062 L 22 14 L 17.199219 7.5996094 A 1.9999999 1.9999999 0 0 0 18 6 A 1.9999999 1.9999999 0 0 0 16 4 A 1.9999999 1.9999999 0 0 0 15.951172 4 z "
       transform="scale(0.26458333)" />
  </g>
</svg>
