<?xml version="1.0" encoding="UTF-8" standalone="no"?>
<svg
   xmlns:dc="http://purl.org/dc/elements/1.1/"
   xmlns:cc="http://creativecommons.org/ns#"
   xmlns:rdf="http://www.w3.org/1999/02/22-rdf-syntax-ns#"
   xmlns:svg="http://www.w3.org/2000/svg"
   xmlns="http://www.w3.org/2000/svg"
   xmlns:sodipodi="http://sodipodi.sourceforge.net/DTD/sodipodi-0.dtd"
   xmlns:inkscape="http://www.inkscape.org/namespaces/inkscape"
   width="32"
   height="32"
   viewBox="0 0 8.4666665 8.4666669"
   version="1.1"
   id="svg8"
   inkscape:version="1.0.1 (3bc2e813f5, 2020-09-07)"
   sodipodi:docname="white-king.svg">
  <defs
     id="defs2" />
  <sodipodi:namedview
     id="base"
     pagecolor="#ffffff"
     bordercolor="#666666"
     borderopacity="1.0"
     inkscape:pageopacity="0.0"
     inkscape:pageshadow="2"
     inkscape:zoom="31.678384"
     inkscape:cx="17.81461"
     inkscape:cy="15.607824"
     inkscape:document-units="mm"
     inkscape:current-layer="layer1"
     inkscape:document-rotation="0"
     showgrid="true"
     units="px"
     inkscape:window-width="2560"
     inkscape:window-height="1380"
     inkscape:window-x="0"
     inkscape:window-y="24"
     inkscape:window-maximized="1">
    <inkscape:grid
       type="xygrid"
       id="grid833"
       empspacing="4" />
    <inkscape:grid
       type="xygrid"
       id="grid835"
       empspacing="1"
       originy="0.13229167"
       originx="0.13229167"
       dotted="true" />
  </sodipodi:namedview>
  <metadata
     id="metadata5">
    <rdf:RDF>
      <cc:Work
         rdf:about="">
        <dc:format>image/svg+xml</dc:format>
        <dc:type
           rdf:resource="http://purl.org/dc/dcmitype/StillImage" />
        <dc:title></dc:title>
      </cc:Work>
    </rdf:RDF>
  </metadata>
  <g
     inkscape:label="Layer 1"
     inkscape:groupmode="layer"
     id="layer1">
    <rect
       style="opacity:1;fill:#ffffff;fill-opacity:1;stroke:#000000;stroke-width:0.13229167;stroke-linecap:round;stroke-linejoin:round;stroke-opacity:1;stroke-miterlimit:4;stroke-dasharray:none"
       id="rect873"
       width="6.3499999"
       height="0.52916664"
       x="1.0583333"
       y="6.8791666"
       ry="0" />
    <path
       id="path1090"
       style="opacity:1;fill:#ffffff;fill-opacity:1;stroke:#000000;stroke-width:0.50000001;stroke-linecap:round;stroke-linejoin:round;stroke-miterlimit:4;stroke-dasharray:none;stroke-opacity:1"
       d="M 15 4 L 15 5 L 14 5 L 14 7 L 15 7 L 15 8.0625 A 7.9999995 7.9999995 0 0 0 8 16 A 7.9999995 7.9999995 0 0 0 16 24 A 7.9999995 7.9999995 0 0 0 24 16 A 7.9999995 7.9999995 0 0 0 17 8.0644531 L 17 7 L 18 7 L 18 5 L 17 5 L 17 4 L 15 4 z M 7.359375 13.484375 A 7.9999994 7.9999994 0 0 0 4 20 A 7.9999994 7.9999994 0 0 0 5.0722656 24 L 11.878906 24 A 8.9999993 8.9999993 0 0 1 7 16 A 8.9999993 8.9999993 0 0 1 7.359375 13.484375 z M 24.642578 13.486328 A 8.9999993 8.9999993 0 0 1 25 16 A 8.9999993 8.9999993 0 0 1 20.126953 24 L 26.929688 24 A 7.9999994 7.9999994 0 0 0 28 20 A 7.9999994 7.9999994 0 0 0 24.642578 13.486328 z "
       transform="scale(0.26458333)" />
  </g>
</svg>
