<?xml version="1.0" encoding="UTF-8" standalone="no"?>
<svg
   xmlns:dc="http://purl.org/dc/elements/1.1/"
   xmlns:cc="http://creativecommons.org/ns#"
   xmlns:rdf="http://www.w3.org/1999/02/22-rdf-syntax-ns#"
   xmlns:svg="http://www.w3.org/2000/svg"
   xmlns="http://www.w3.org/2000/svg"
   xmlns:sodipodi="http://sodipodi.sourceforge.net/DTD/sodipodi-0.dtd"
   xmlns:inkscape="http://www.inkscape.org/namespaces/inkscape"
   width="512"
   height="512"
   viewBox="0 0 135.46665 135.46665"
   version="1.1"
   id="svg8"
   inkscape:version="1.0.1 (3bc2e813f5, 2020-09-07)"
   sodipodi:docname="bishop_white.svg">
  <defs
     id="defs2" />
  <sodipodi:namedview
     id="base"
     pagecolor="#ffffff"
     bordercolor="#666666"
     borderopacity="1.0"
     inkscape:pageopacity="0"
     inkscape:pageshadow="2"
     inkscape:zoom="2.8"
     inkscape:cx="310.01079"
     inkscape:cy="277.57964"
     inkscape:document-units="px"
     inkscape:current-layer="layer1"
     inkscape:document-rotation="0"
     showgrid="true"
     units="px"
     inkscape:pagecheckerboard="true"
     gridtolerance="10"
     inkscape:window-width="1920"
     inkscape:window-height="1016"
     inkscape:window-x="0"
     inkscape:window-y="27"
     inkscape:window-maximized="1"
     inkscape:snap-path-clip="true"
     inkscape:snap-path-mask="true">
    <inkscape:grid
       type="xygrid"
       id="grid18"
       dotted="false"
       empspacing="4" />
  </sodipodi:namedview>
  <metadata
     id="metadata5">
    <rdf:RDF>
      <cc:Work
         rdf:about="">
        <dc:format>image/svg+xml</dc:format>
        <dc:type
           rdf:resource="http://purl.org/dc/dcmitype/StillImage" />
        <dc:title></dc:title>
        <cc:license
           rdf:resource="" />
      </cc:Work>
    </rdf:RDF>
  </metadata>
  <g
     inkscape:label="Layer 1"
     inkscape:groupmode="layer"
     id="layer1">
    <path
       id="path38"
       style="fill:#ffffff;stroke:#000000;stroke-width:9;stroke-linecap:butt;stroke-linejoin:miter;stroke-miterlimit:7.5;stroke-dasharray:none;stroke-opacity:1;fill-opacity:1"
       d="m 256,58.307692 c -16.8718,0 -33.74359,7.230769 -19.28205,21.692308 -5.34795,5.347948 -10.36237,11.357477 -14.74635,17.719143 l 24.38737,30.485987 -9.64102,9.64102 -22.19602,-27.74383 c -13.08039,25.26302 -14.38143,52.83973 12.55499,66.30794 L 198.15384,186.05128 232,196 224,376 c -24,0 -40,24.00001 -40,40 -24,0 -56,16.00003 -56,64 l 256,0 c 0,-47.99997 -32,-64 -56,-64 0,-15.99999 -16,-40 -40,-40 l -8,-180 33.84616,-9.94872 -28.92308,-9.64102 C 323.48718,157.12821 304.20513,108.92308 275.28205,80 289.74359,65.538461 272.8718,58.307692 256,58.307692 Z"
       sodipodi:nodetypes="sccccccccccccccccccs"
       transform="scale(0.2645833)" />
  </g>
</svg>
